<svg xmlns="http://www.w3.org/2000/svg" style="display:none">

  <symbol id="icon-fire" viewBox="0 0 24 24">
    <path fill="none" stroke="currentColor" stroke-width="2" stroke-linecap="square" stroke-linejoin="miter"
          d="M12 2 L14 6 L12 8 L10 6 Z
             M10 6 L8 10 L10 14 L12 12 L14 14 L16 10 L14 6
             M8 10 L6 14 L8 18 L10 16 L12 18 L14 16 L16 18 L18 14 L16 10
             M8 18 L8 22 L16 22 L16 18"/>
  </symbol>

  <symbol id="icon-clock" viewBox="0 0 24 24">
    <rect x="2" y="2" width="20" height="20" rx="0" fill="none" stroke="currentColor" stroke-width="2"/>
    <polyline points="12,6 12,12 16,12" fill="none" stroke="currentColor" stroke-width="2" stroke-linecap="square" stroke-linejoin="miter"/>
  </symbol>

  <symbol id="icon-eye" viewBox="0 0 24 24">
    <path fill="none" stroke="currentColor" stroke-width="2" stroke-linecap="square" stroke-linejoin="miter"
          d="M2 12 L6 8 L10 6 L14 6 L18 8 L22 12 L18 16 L14 18 L10 18 L6 16 Z"/>
    <rect x="10" y="10" width="4" height="4" fill="none" stroke="currentColor" stroke-width="2"/>
  </symbol>

  <symbol id="icon-heart" viewBox="0 0 24 24">
    <path fill="none" stroke="currentColor" stroke-width="2" stroke-linecap="square" stroke-linejoin="miter"
          d="M12 21 L4 13 L4 7 L6 5 L10 5 L12 7 L14 5 L18 5 L20 7 L20 13 Z"/>
  </symbol>

  <symbol id="icon-calendar" viewBox="0 0 24 24">
    <rect x="2" y="4" width="20" height="18" fill="none" stroke="currentColor" stroke-width="2"/>
    <line x1="2" y1="10" x2="22" y2="10" stroke="currentColor" stroke-width="2"/>
    <line x1="6" y1="2" x2="6" y2="6" stroke="currentColor" stroke-width="2"/>
    <line x1="18" y1="2" x2="18" y2="6" stroke="currentColor" stroke-width="2"/>
    <rect x="6" y="14" width="4" height="2" fill="currentColor"/>
    <rect x="14" y="14" width="4" height="2" fill="currentColor"/>
  </symbol>

  <symbol id="icon-user" viewBox="0 0 24 24">
    <rect x="8" y="4" width="8" height="8" fill="none" stroke="currentColor" stroke-width="2"/>
    <path fill="none" stroke="currentColor" stroke-width="2" stroke-linecap="square" stroke-linejoin="miter"
          d="M4 20 L6 14 L18 14 L20 20 Z"/>
  </symbol>

  <symbol id="icon-newspaper" viewBox="0 0 24 24">
    <rect x="2" y="2" width="20" height="20" fill="none" stroke="currentColor" stroke-width="2"/>
    <line x1="6" y1="6" x2="18" y2="6" stroke="currentColor" stroke-width="2"/>
    <line x1="6" y1="10" x2="14" y2="10" stroke="currentColor" stroke-width="2"/>
    <line x1="6" y1="14" x2="18" y2="14" stroke="currentColor" stroke-width="2"/>
    <line x1="6" y1="18" x2="12" y2="18" stroke="currentColor" stroke-width="2"/>
    <rect x="16" y="10" width="4" height="8" fill="none" stroke="currentColor" stroke-width="2"/>
  </symbol>

  <symbol id="icon-sun" viewBox="0 0 24 24">
    <rect x="9" y="9" width="6" height="6" fill="none" stroke="currentColor" stroke-width="2"/>
    <line x1="12" y1="2" x2="12" y2="5" stroke="currentColor" stroke-width="2"/>
    <line x1="12" y1="19" x2="12" y2="22" stroke="currentColor" stroke-width="2"/>
    <line x1="2" y1="12" x2="5" y2="12" stroke="currentColor" stroke-width="2"/>
    <line x1="19" y1="12" x2="22" y2="12" stroke="currentColor" stroke-width="2"/>
    <line x1="4.5" y1="4.5" x2="6.5" y2="6.5" stroke="currentColor" stroke-width="2"/>
    <line x1="17.5" y1="17.5" x2="19.5" y2="19.5" stroke="currentColor" stroke-width="2"/>
    <line x1="4.5" y1="19.5" x2="6.5" y2="17.5" stroke="currentColor" stroke-width="2"/>
    <line x1="17.5" y1="6.5" x2="19.5" y2="4.5" stroke="currentColor" stroke-width="2"/>
  </symbol>

  <symbol id="icon-moon" viewBox="0 0 24 24">
    <path fill="none" stroke="currentColor" stroke-width="2" stroke-linecap="square" stroke-linejoin="miter"
          d="M18 4 L16 6 L16 10 L18 12 L20 10 L20 6 Z
             M14 8 L12 10 L12 18 L14 20 L18 20 L20 18 L20 14"/>
  </symbol>

  <symbol id="icon-monitor" viewBox="0 0 24 24">
    <rect x="2" y="4" width="20" height="14" fill="none" stroke="currentColor" stroke-width="2"/>
    <line x1="8" y1="18" x2="16" y2="18" stroke="currentColor" stroke-width="2"/>
    <line x1="10" y1="18" x2="10" y2="22" stroke="currentColor" stroke-width="2"/>
    <line x1="14" y1="18" x2="14" y2="22" stroke="currentColor" stroke-width="2"/>
    <line x1="6" y1="22" x2="18" y2="22" stroke="currentColor" stroke-width="2"/>
  </symbol>

  <symbol id="icon-trophy" viewBox="0 0 24 24">
    <path fill="none" stroke="currentColor" stroke-width="2" stroke-linecap="square" stroke-linejoin="miter"
          d="M6 4 L6 10 L8 14 L12 16 L16 14 L18 10 L18 4 Z"/>
    <line x1="4" y1="6" x2="6" y2="6" stroke="currentColor" stroke-width="2"/>
    <line x1="18" y1="6" x2="20" y2="6" stroke="currentColor" stroke-width="2"/>
    <line x1="4" y1="6" x2="4" y2="8" stroke="currentColor" stroke-width="2"/>
    <line x1="20" y1="6" x2="20" y2="8" stroke="currentColor" stroke-width="2"/>
    <line x1="10" y1="16" x2="10" y2="20" stroke="currentColor" stroke-width="2"/>
    <line x1="14" y1="16" x2="14" y2="20" stroke="currentColor" stroke-width="2"/>
    <line x1="8" y1="20" x2="16" y2="20" stroke="currentColor" stroke-width="2"/>
  </symbol>

  <symbol id="icon-link" viewBox="0 0 24 24">
    <path fill="none" stroke="currentColor" stroke-width="2" stroke-linecap="square" stroke-linejoin="miter"
          d="M10 6 L6 6 L6 18 L10 18"/>
    <path fill="none" stroke="currentColor" stroke-width="2" stroke-linecap="square" stroke-linejoin="miter"
          d="M14 6 L18 6 L18 18 L14 18"/>
    <line x1="8" y1="12" x2="16" y2="12" stroke="currentColor" stroke-width="2"/>
  </symbol>

  <symbol id="icon-tag" viewBox="0 0 24 24">
    <path fill="none" stroke="currentColor" stroke-width="2" stroke-linecap="square" stroke-linejoin="miter"
          d="M2 12 L10 4 L20 4 L20 14 L12 22 Z"/>
    <rect x="14" y="8" width="4" height="4" fill="none" stroke="currentColor" stroke-width="2"/>
  </symbol>

  <symbol id="icon-star" viewBox="0 0 24 24">
    <path fill="none" stroke="currentColor" stroke-width="2" stroke-linecap="square" stroke-linejoin="miter"
          d="M12 2 L14 8 L20 8 L16 12 L18 18 L12 14 L6 18 L8 12 L4 8 L10 8 Z"/>
  </symbol>

  <symbol id="icon-chat" viewBox="0 0 24 24">
    <rect x="2" y="4" width="20" height="14" fill="none" stroke="currentColor" stroke-width="2"/>
    <path fill="none" stroke="currentColor" stroke-width="2" stroke-linecap="square" stroke-linejoin="miter"
          d="M6 18 L10 18 L12 22 L14 18 L18 18"/>
    <line x1="6" y1="9" x2="14" y2="9" stroke="currentColor" stroke-width="2"/>
    <line x1="6" y1="13" x2="18" y2="13" stroke="currentColor" stroke-width="2"/>
  </symbol>

  <symbol id="icon-book" viewBox="0 0 24 24">
    <rect x="4" y="2" width="16" height="20" fill="none" stroke="currentColor" stroke-width="2"/>
    <line x1="8" y1="2" x2="8" y2="22" stroke="currentColor" stroke-width="2"/>
    <line x1="12" y1="6" x2="16" y2="6" stroke="currentColor" stroke-width="2"/>
    <line x1="12" y1="10" x2="16" y2="10" stroke="currentColor" stroke-width="2"/>
    <line x1="12" y1="14" x2="16" y2="14" stroke="currentColor" stroke-width="2"/>
    <line x1="12" y1="18" x2="16" y2="18" stroke="currentColor" stroke-width="2"/>
  </symbol>

  <symbol id="icon-crown" viewBox="0 0 24 24">
    <path fill="none" stroke="currentColor" stroke-width="2" stroke-linecap="square" stroke-linejoin="miter"
          d="M4 16 L4 8 L8 12 L12 6 L16 12 L20 8 L20 16 Z"/>
    <line x1="4" y1="16" x2="20" y2="16" stroke="currentColor" stroke-width="2"/>
    <line x1="6" y1="20" x2="18" y2="20" stroke="currentColor" stroke-width="2"/>
    <line x1="8" y1="16" x2="8" y2="20" stroke="currentColor" stroke-width="2"/>
    <line x1="16" y1="16" x2="16" y2="20" stroke="currentColor" stroke-width="2"/>
    <rect x="11" y="4" width="2" height="2" fill="currentColor"/>
  </symbol>

  <symbol id="icon-search" viewBox="0 0 24 24">
    <circle cx="10" cy="10" r="6" fill="none" stroke="currentColor" stroke-width="2"/>
    <line x1="15" y1="15" x2="21" y2="21" stroke="currentColor" stroke-width="2"/>
  </symbol>

  <symbol id="icon-caret-left" viewBox="0 0 24 24">
    <polyline points="16,4 8,12 16,20" fill="none" stroke="currentColor" stroke-width="2" stroke-linecap="square" stroke-linejoin="miter"/>
  </symbol>

  <symbol id="icon-caret-right" viewBox="0 0 24 24">
    <polyline points="8,4 16,12 8,20" fill="none" stroke="currentColor" stroke-width="2" stroke-linecap="square" stroke-linejoin="miter"/>
  </symbol>

  <symbol id="icon-caret-up" viewBox="0 0 24 24">
    <polyline points="4,16 12,8 20,16" fill="none" stroke="currentColor" stroke-width="2" stroke-linecap="square" stroke-linejoin="miter"/>
  </symbol>

  <symbol id="icon-close" viewBox="0 0 24 24">
    <line x1="4" y1="4" x2="20" y2="20" stroke="currentColor" stroke-width="2"/>
    <line x1="20" y1="4" x2="4" y2="20" stroke="currentColor" stroke-width="2"/>
  </symbol>

  <symbol id="icon-check" viewBox="0 0 24 24">
    <polyline points="4,12 9,17 20,6" fill="none" stroke="currentColor" stroke-width="2" stroke-linecap="square" stroke-linejoin="miter"/>
  </symbol>

  <symbol id="icon-list" viewBox="0 0 24 24">
    <line x1="4" y1="6" x2="20" y2="6" stroke="currentColor" stroke-width="2"/>
    <line x1="4" y1="12" x2="20" y2="12" stroke="currentColor" stroke-width="2"/>
    <line x1="4" y1="18" x2="20" y2="18" stroke="currentColor" stroke-width="2"/>
    <rect x="4" y="4" width="4" height="4" fill="currentColor"/>
    <rect x="4" y="10" width="4" height="4" fill="currentColor"/>
    <rect x="4" y="16" width="4" height="4" fill="currentColor"/>
  </symbol>

  <symbol id="icon-github" viewBox="0 0 24 24">
    <rect x="6" y="2" width="12" height="20" fill="none" stroke="currentColor" stroke-width="2"/>
    <line x1="6" y1="6" x2="18" y2="6" stroke="currentColor" stroke-width="2"/>
    <line x1="10" y1="10" x2="14" y2="10" stroke="currentColor" stroke-width="2"/>
    <line x1="10" y1="14" x2="14" y2="14" stroke="currentColor" stroke-width="2"/>
    <line x1="8" y1="18" x2="16" y2="18" stroke="currentColor" stroke-width="2"/>
    <rect x="9" y="3" width="2" height="2" fill="currentColor"/>
    <rect x="13" y="3" width="2" height="2" fill="currentColor"/>
  </symbol>

  <symbol id="icon-envelope" viewBox="0 0 24 24">
    <rect x="2" y="4" width="20" height="16" fill="none" stroke="currentColor" stroke-width="2"/>
    <polyline points="2,4 12,12 22,4" fill="none" stroke="currentColor" stroke-width="2" stroke-linecap="square" stroke-linejoin="miter"/>
  </symbol>

  <symbol id="icon-lock" viewBox="0 0 24 24">
    <rect x="4" y="10" width="16" height="12" fill="none" stroke="currentColor" stroke-width="2"/>
    <rect x="8" y="2" width="8" height="8" fill="none" stroke="currentColor" stroke-width="2"/>
    <line x1="10" y1="14" x2="10" y2="18" stroke="currentColor" stroke-width="2"/>
    <line x1="14" y1="14" x2="14" y2="18" stroke="currentColor" stroke-width="2"/>
  </symbol>

  <symbol id="icon-login" viewBox="0 0 24 24">
    <rect x="8" y="4" width="14" height="16" fill="none" stroke="currentColor" stroke-width="2"/>
    <polyline points="14,12 2,12 6,8" fill="none" stroke="currentColor" stroke-width="2" stroke-linecap="square" stroke-linejoin="miter"/>
    <polyline points="2,12 6,16" fill="none" stroke="currentColor" stroke-width="2" stroke-linecap="square" stroke-linejoin="miter"/>
  </symbol>

  <symbol id="icon-image" viewBox="0 0 24 24">
    <rect x="2" y="4" width="20" height="16" fill="none" stroke="currentColor" stroke-width="2"/>
    <polyline points="2,16 8,10 14,16" fill="none" stroke="currentColor" stroke-width="2" stroke-linecap="square" stroke-linejoin="miter"/>
    <polyline points="14,16 18,12 22,16" fill="none" stroke="currentColor" stroke-width="2" stroke-linecap="square" stroke-linejoin="miter"/>
    <rect x="14" y="6" width="4" height="4" fill="none" stroke="currentColor" stroke-width="2"/>
  </symbol>

  <symbol id="icon-folder" viewBox="0 0 24 24">
    <path fill="none" stroke="currentColor" stroke-width="2" stroke-linecap="square" stroke-linejoin="miter"
          d="M2 6 L6 6 L8 4 L14 4 L14 6 L22 6 L22 20 L2 20 Z"/>
  </symbol>

  <symbol id="icon-home" viewBox="0 0 24 24">
    <path fill="none" stroke="currentColor" stroke-width="2" stroke-linecap="square" stroke-linejoin="miter"
          d="M2 10 L12 2 L22 10 L22 22 L16 22 L16 16 L8 16 L8 22 L2 22 Z"/>
  </symbol>

  <symbol id="icon-setting" viewBox="0 0 24 24">
    <rect x="8" y="8" width="8" height="8" fill="none" stroke="currentColor" stroke-width="2"/>
    <line x1="12" y1="2" x2="12" y2="8" stroke="currentColor" stroke-width="2"/>
    <line x1="12" y1="16" x2="12" y2="22" stroke="currentColor" stroke-width="2"/>
    <line x1="2" y1="12" x2="8" y2="12" stroke="currentColor" stroke-width="2"/>
    <line x1="16" y1="12" x2="22" y2="12" stroke="currentColor" stroke-width="2"/>
    <rect x="11" y="1" width="2" height="2" fill="currentColor"/>
    <rect x="11" y="21" width="2" height="2" fill="currentColor"/>
    <rect x="1" y="11" width="2" height="2" fill="currentColor"/>
    <rect x="21" y="11" width="2" height="2" fill="currentColor"/>
  </symbol>

  <symbol id="icon-twitter" viewBox="0 0 24 24">
    <rect x="2" y="4" width="20" height="16" fill="none" stroke="currentColor" stroke-width="2"/>
    <line x1="6" y1="8" x2="10" y2="8" stroke="currentColor" stroke-width="2"/>
    <line x1="6" y1="12" x2="14" y2="12" stroke="currentColor" stroke-width="2"/>
    <line x1="6" y1="16" x2="12" y2="16" stroke="currentColor" stroke-width="2"/>
    <polyline points="14,10 18,12 14,14" fill="none" stroke="currentColor" stroke-width="2" stroke-linecap="square" stroke-linejoin="miter"/>
  </symbol>

  <symbol id="icon-fire-alt" viewBox="0 0 24 24">
    <path fill="none" stroke="currentColor" stroke-width="2" stroke-linecap="square" stroke-linejoin="miter"
          d="M12 2 L14 8 L12 10 L10 8 Z
             M8 8 L6 14 L8 18 L10 16 L12 18 L14 16 L16 18 L18 14 L16 8
             M8 18 L8 22 L16 22 L16 18"/>
    <line x1="10" y1="12" x2="14" y2="12" stroke="currentColor" stroke-width="2"/>
  </symbol>

</svg>
